<?xml version="1.0" encoding="UTF-8" standalone="no"?>
<!-- Created with Inkscape (http://www.inkscape.org/) -->
<svg
   xmlns:dc="http://purl.org/dc/elements/1.1/"
   xmlns:cc="http://creativecommons.org/ns#"
   xmlns:rdf="http://www.w3.org/1999/02/22-rdf-syntax-ns#"
   xmlns:svg="http://www.w3.org/2000/svg"
   xmlns="http://www.w3.org/2000/svg"
   xmlns:sodipodi="http://sodipodi.sourceforge.net/DTD/sodipodi-0.dtd"
   xmlns:inkscape="http://www.inkscape.org/namespaces/inkscape"
   id="svg2"
   sodipodi:version="0.32"
   inkscape:version="0.46"
   width="1000"
   height="588"
   version="1.0"
   sodipodi:docname="Larousse vectoriel.svg"
   inkscape:output_extension="org.inkscape.output.svg.inkscape">
  <metadata
     id="metadata7">
    <rdf:RDF>
      <cc:Work
         rdf:about="">
        <dc:format>image/svg+xml</dc:format>
        <dc:type
           rdf:resource="http://purl.org/dc/dcmitype/StillImage" />
      </cc:Work>
    </rdf:RDF>
  </metadata>
  <defs
     id="defs5">
    <inkscape:perspective
       sodipodi:type="inkscape:persp3d"
       inkscape:vp_x="0 : 526.18109 : 1"
       inkscape:vp_y="0 : 1000 : 0"
       inkscape:vp_z="744.09448 : 526.18109 : 1"
       inkscape:persp3d-origin="372.04724 : 350.78739 : 1"
       id="perspective9" />
  </defs>
  <sodipodi:namedview
     inkscape:window-height="744"
     inkscape:window-width="1280"
     inkscape:pageshadow="2"
     inkscape:pageopacity="0.0"
     guidetolerance="10.0"
     gridtolerance="10.0"
     objecttolerance="10.0"
     borderopacity="1.0"
     bordercolor="#666666"
     pagecolor="#ffffff"
     id="base"
     showgrid="false"
     inkscape:zoom="0.544"
     inkscape:cx="486.47479"
     inkscape:cy="310.55219"
     inkscape:window-x="-4"
     inkscape:window-y="-4"
     inkscape:current-layer="svg2" />
  <path
     style="fill:#d7010e;fill-opacity:1"
     d="M 563.65349,486.47125 C 549.89719,483.48836 540.03869,475.72613 535.40379,464.22858 C 533.14419,458.62302 533.09689,457.71259 532.60009,410.19531 C 532.11519,363.81764 532.01629,361.80634 530.15359,360.44532 C 528.44169,359.19442 529.76989,359.02696 541.40359,359.02696 L 554.59469,359.02696 L 552.55769,361.06397 C 550.55749,363.0642 550.52589,363.95357 550.80769,410.31396 C 551.09099,456.90733 551.12389,457.58146 553.31569,461.68022 C 558.44319,471.26867 568.88259,475.68862 584.31509,474.80511 C 598.38489,473.99961 606.96669,469.13978 611.29409,459.52695 C 612.92759,455.89813 613.12239,451.31037 613.39279,410.08752 C 613.68569,365.4116 613.65579,364.60087 611.61279,361.83753 L 609.53489,359.02696 L 629.90469,359.02696 L 627.99969,361.13087 C 626.19209,363.12723 624.74299,365.63204 625.82849,409.88086 C 626.88299,452.86716 627.03309,457.0436 625.22459,463.11191 C 615.45359,487.72694 586.43729,489.59153 563.65349,486.47125 z M 687.09469,486.56505 C 683.24469,485.86028 677.29579,484.10089 673.87489,482.6553 C 666.60869,479.5848 664.90119,479.43966 662.42349,481.68194 C 660.65969,483.2781 660.59589,482.82489 660.62639,468.93194 L 660.65809,454.52695 C 667.40619,465.19287 677.05269,471.10444 689.09469,474.13343 C 702.45959,476.59917 717.24529,471.89208 722.08709,463.63019 C 726.79419,455.59813 724.56589,444.15769 717.20009,438.53952 C 701.19059,429.195 681.80629,426.49778 667.66179,413.99874 C 661.31889,407.65585 659.25429,401.70318 659.75759,391.20936 C 660.20739,381.83 662.79429,376.00635 669.42379,369.44806 C 681.73229,357.27191 701.45309,353.71901 719.09469,360.49934 C 729.26669,364.4088 730.68599,364.62271 732.25109,362.48229 C 733.40369,360.90595 733.60559,362.41348 733.67129,373.08583 C 733.71329,379.92845 733.89849,386.31446 734.08279,387.27696 C 734.62939,390.13263 732.93749,389.26855 731.58389,386.00082 C 729.78299,381.65294 721.37579,374.48431 715.83889,372.57534 C 708.92509,370.19164 699.73839,369.55313 693.58719,371.02878 C 679.33959,375.45831 671.57369,389.2397 681.24679,403.02533 C 684.51329,406.90734 688.09759,408.71378 703.09469,414.03645 C 734.14989,425.05831 743.88759,435.06608 742.27479,454.30334 C 741.18559,467.2948 733.97779,477.1676 721.27439,483.06832 C 711.03639,487.82383 700.08919,488.94378 687.09469,486.56505 z M 797.59468,486.50567 C 794.01968,485.77233 788.29118,484.01461 784.86458,482.59964 C 777.56338,479.58467 775.88928,479.45039 773.42348,481.68194 C 771.65968,483.2781 771.59588,482.82489 771.62638,468.93194 L 771.65808,454.52695 C 775.96768,461.08022 781.22098,466.37819 788.13468,470.12123 C 805.12868,478.48734 827.63878,474.83038 833.48498,462.75368 C 837.47778,454.50563 835.25908,443.92368 828.44768,438.72834 C 825.27118,436.30552 822.26478,434.99835 801.59468,427.05269 C 777.63878,417.84391 769.91088,408.86155 770.75758,391.20936 C 771.20438,381.89306 773.80868,375.97087 780.32388,369.45567 C 792.77068,357.0089 812.55158,353.6758 831.09468,360.90073 C 840.28188,364.48031 840.91308,364.56576 842.97038,362.50846 C 844.32838,361.15047 844.52088,362.47186 844.79178,375.01008 C 844.95838,382.72115 844.81178,389.02946 844.46608,389.02857 C 844.12028,389.02768 843.27328,387.66519 842.58388,386.00082 C 840.78298,381.65294 832.37578,374.48431 826.83888,372.57534 C 814.89858,368.45862 802.69178,369.68414 795.65668,375.70591 C 789.07738,381.33754 786.57108,388.51168 788.57848,395.96667 C 790.84278,404.37553 795.32528,407.54068 814.36188,414.17248 C 844.88968,424.80751 854.88348,435.11413 853.27478,454.30334 C 851.87468,471.00386 840.45198,482.49684 821.32778,486.44706 C 812.30878,488.30998 806.46108,488.32443 797.59468,486.50567 z M 391.07649,469.62571 C 377.80399,456.21985 372.21059,442.16012 372.14039,422.02695 C 371.85249,396.73153 385.22599,375.13812 406.82459,362.49493 C 425.13379,353.79994 445.13419,354.5341 463.09469,364.56046 C 480.73429,374.40762 491.95769,391.78652 494.77569,413.6169 C 498.25429,440.56479 483.85889,469.4612 461.52089,480.37022 C 457.43649,482.36488 451.41269,484.67865 448.13459,485.51192 C 426.42989,490.19473 407.06029,484.55321 391.07649,469.62571 z M 449.81279,470.3057 C 465.39859,463.01221 475.25099,446.35114 476.29229,425.52695 C 477.22709,406.83318 472.19199,392.44895 460.68339,380.93551 C 452.40719,372.65585 445.86479,369.89146 434.64439,369.93319 C 409.45309,370.02689 392.46129,388.38264 389.97069,418.19319 C 388.66329,433.8404 394.68209,451.76474 404.64079,461.8817 C 413.37589,470.75576 421.96189,474.14726 434.61199,473.72055 C 441.69209,473.48173 444.25709,472.9055 449.81279,470.3057 z M 21.707423,485.02373 C 21.954693,484.84101 23.491363,482.94066 24.298873,481.87304 C 25.550933,480.21767 25.594733,471.03581 25.594733,421.16456 C 25.594733,368.15152 25.521253,363.00092 23.939743,360.8557 C 23.587083,360.37734 22.617173,359.10555 22.542343,359.01397 C 22.724083,358.98292 25.834663,359.02696 35.094733,359.02696 L 47.904703,359.02696 L 45.999723,361.13133 C 44.182953,363.13825 44.082003,365.75469 43.819763,417.63132 L 43.544803,472.02695 C 56.201023,472.28533 68.859123,472.32811 81.517273,472.22013 C 94.458483,472.06871 96.159823,471.84471 98.081733,470.03917 C 100.8796,467.4107 101.19996,467.49285 100.95899,470.77695 L 100.59473,485.02695 C 74.300113,485.18881 48.001543,484.80888 21.707423,485.02373 z M 110.44616,481.27695 C 111.16893,480.10335 155.55806,364.9966 155.83204,363.70082 C 156.25749,360.38238 154.45402,359.94432 153.15539,359.18794 L 176.44936,359.02696 C 177.04282,360.94052 225.48756,479.66005 226.08226,481.72292 L 228.58064,483.9189 C 224.90111,484.26015 198.51774,484.71281 202.10047,482.66312 C 204.70357,481.66422 203.76827,477.49326 196.91367,459.53275 L 190.2326,442.02695 L 140.76958,442.02695 C 137.69762,450.18913 134.5803,458.33405 131.44072,466.47043 C 127.00196,477.94645 126.77711,480.18731 129.78329,482.98799 L 131.97185,485.02695 L 107.50049,485.02695 L 110.44616,481.27695 z M 185.31813,428.77695 C 185.20968,428.46024 165.21287,378.87971 165.00171,378.28665 C 164.89234,379.20025 145.70962,428.71499 145.59473,429.06006 C 145.72909,429.04932 185.0975,428.78627 185.31813,428.77695 z M 250.59469,484.38719 C 250.59469,484.03533 251.38219,483.17177 252.34469,482.46819 C 253.97119,481.27924 254.11409,477.07341 254.36859,422.88587 C 254.63849,365.42432 254.61279,364.54271 252.58869,361.80488 L 250.53489,359.02696 L 277.47679,359.02696 C 314.52499,359.02696 321.85749,360.58033 332.70499,370.72687 C 339.05789,376.66924 341.67669,383.49467 341.70019,394.17067 C 341.73539,410.18279 332.86129,421.41852 316.09469,426.59028 C 313.89469,427.26889 312.11479,427.79861 311.75109,427.957 C 311.91619,428.12577 343.17949,477.90027 346.19249,480.79041 C 348.06369,482.58531 349.59469,484.27281 349.59469,484.54041 L 326.91669,485.02695 L 310.50569,458.07368 C 291.96019,427.6146 294.21819,429.6826 280.09469,430.22163 L 272.09469,430.52695 L 272.09469,455.67337 C 272.09469,478.9989 272.23269,480.97212 273.99969,482.92337 L 275.90469,485.02695 L 263.24969,485.02695 C 256.28949,485.02695 250.59469,484.73906 250.59469,484.38719 z M 323.41809,394.36222 C 323.56429,370.29279 300.59639,371.55485 283.84469,371.03275 L 271.59469,371.02696 L 271.91969,417.89626 L 289.41809,417.87408 C 308.03289,417.94321 323.03749,418.58967 323.41809,394.36222 z M 886.75328,484.20677 C 883.46038,483.89124 883.43858,483.85702 885.25328,481.85249 C 886.98878,479.93537 887.11138,476.56066 887.38348,423.17267 C 887.54228,392.01752 887.42908,365.54593 887.13198,364.34689 C 886.83488,363.14785 885.23538,359.99804 884.37188,359.13458 L 962.59468,359.02696 L 962.59468,377.31901 L 960.29538,374.83796 C 958.06958,372.43634 957.43738,372.33572 940.54538,371.69499 L 904.55498,371.67687 L 905.09468,413.52695 L 951.64868,414.06394 L 954.12168,411.5909 L 956.59468,409.11786 L 956.59468,420.24672 L 956.59468,431.37558 L 954.18928,429.11581 C 951.87188,426.93869 950.92108,426.83531 928.18928,426.28889 L 904.59468,426.37164 L 904.59468,472.02695 L 959.69018,472.02695 L 964.59468,466.7349 L 964.59468,483.97971 C 938.65638,483.80116 912.68758,484.96814 886.75328,484.20677 z"
     id="path2388"
     sodipodi:nodetypes="cssscccsssssccccscccsscccsccssssssssccsssccsscccssssssssssssssssccccssscccssssssccssscccccccscccccccccccccccccccccccsscccssscscccccccccccccccccssccccccccccccccccccccc" />
  <path
     style="fill:#000000"
     d="M 570.01782,581.52808 C 566.80262,568.81318 564.87552,551.88294 564.83922,528.61694 C 564.80242,505.02564 565.27462,505.57197 567.60602,503.30627 L 569.95032,501.02807 L 569.38982,506.02807 C 567.22962,525.29687 567.84702,544.26688 571.41402,568.22558 C 572.59922,576.18638 572.80282,580.37768 572.11842,582.72558 L 571.15572,586.02808 L 570.01782,581.52808 z M 558.89112,578.11248 C 554.25912,570.95018 549.24082,566.51228 542.30352,563.44358 C 538.67192,561.83718 537.56012,560.76998 537.09482,558.44388 C 536.24832,554.21098 535.32402,554.12588 533.42602,558.10588 C 532.00022,561.09588 531.48322,561.44948 529.83082,560.56508 C 527.41212,559.27068 524.18662,554.78938 522.12892,549.86458 L 520.54972,546.08508 L 519.12382,548.80658 C 518.33952,550.30348 517.24542,551.52808 516.69252,551.52808 C 515.12332,551.52808 507.46362,543.24678 505.27662,539.18567 C 503.42542,535.74827 501.76172,534.43257 501.76172,536.40597 C 501.76172,536.88887 501.07862,538.91887 500.24362,540.91717 C 498.77142,544.44068 498.65412,544.50368 496.36142,543.00148 C 492.91682,540.74447 485.00482,530.33197 482.59512,524.88437 C 480.56772,520.30107 480.56242,520.14577 482.38832,518.76267 C 483.79222,517.69917 486.41232,517.45817 492.84362,517.80067 C 502.20882,518.29957 507.42782,520.12907 506.98192,522.75687 C 506.74342,524.16227 507.18522,524.26707 509.97532,523.46687 C 514.27772,522.23297 520.95962,522.27267 524.32502,523.55217 C 526.76612,524.48027 526.96932,524.94397 526.49242,528.49957 L 525.96612,532.42277 L 531.61392,532.40017 C 538.06172,532.37427 542.76172,533.83597 542.76172,535.86697 C 542.76172,537.66467 537.42612,543.02128 536.97712,541.67438 C 536.78932,541.11097 537.35222,539.55647 538.22802,538.21997 C 539.78502,535.84367 539.75042,535.77587 536.66602,535.15897 C 534.93112,534.81197 531.13582,534.52807 528.23192,534.52807 L 522.95202,534.52807 L 523.48182,530.57847 C 523.96322,526.98937 523.78022,526.57087 521.47662,525.99267 C 520.08252,525.64277 515.65282,525.50757 511.63282,525.69227 C 504.98272,525.99787 504.28822,525.84787 503.92712,524.02807 C 503.31652,520.95047 501.97422,520.55987 491.94932,520.54347 L 482.63692,520.52807 L 485.44932,525.69717 C 488.30732,530.95007 496.26682,540.52807 497.77402,540.52807 C 498.22882,540.52807 499.34832,538.27807 500.26172,535.52807 C 501.17512,532.77807 502.25932,530.52807 502.67112,530.52807 C 503.08292,530.52807 504.45792,532.74447 505.72662,535.45327 C 506.99542,538.16207 509.95982,542.26898 512.31422,544.57968 L 516.59492,548.78088 L 519.09442,543.90448 C 520.66032,540.84937 521.76412,539.58837 522.04972,540.52807 C 522.30042,541.35307 523.23572,544.53488 524.12812,547.59868 C 525.02062,550.66248 526.84502,554.19718 528.18242,555.45358 L 530.61402,557.73798 L 532.74602,553.55888 C 535.29702,548.55848 536.85002,549.20028 538.76702,556.04708 C 539.45702,558.51168 540.59292,560.52808 541.29122,560.52808 C 541.98942,560.52808 544.85592,562.07268 547.66122,563.96048 C 550.46652,565.84828 552.76172,567.13658 552.76172,566.82338 C 552.76172,565.46358 541.06072,552.57068 535.42702,547.72288 C 523.32972,537.31297 508.52122,529.24167 495.54962,525.98777 C 488.97952,524.33967 481.99682,520.91767 487.76172,522.17117 C 494.41522,523.61787 507.17382,528.20857 515.40442,532.11727 C 531.06712,539.55547 544.53292,550.91138 553.67432,564.39088 C 557.98052,570.74058 564.24512,583.37808 563.47062,584.15258 C 563.24572,584.37748 561.18492,581.65938 558.89112,578.11248 z M 579.78372,565.27808 C 579.82472,562.94478 583.70742,555.41778 589.10462,547.20898 C 601.38692,528.52807 617.07682,513.89977 633.26172,506.03927 C 644.86162,500.40557 650.94722,499.05047 641.24922,504.26067 C 617.36322,517.09327 597.11642,536.31557 585.66952,557.02808 L 582.35362,563.02808 L 591.55762,553.57958 C 596.61992,548.38288 600.76782,543.43288 600.77532,542.57958 C 600.80372,539.36177 602.04582,536.52807 603.42802,536.52807 C 604.21612,536.52807 606.13652,537.18767 607.69552,537.99387 L 610.53002,539.45967 L 613.14582,533.42797 C 614.58452,530.11057 615.76172,526.52597 615.76172,525.46217 C 615.76172,523.18687 617.30622,523.05277 620.76172,525.02807 C 622.13672,525.81417 623.56902,526.47317 623.94462,526.49267 C 624.32012,526.51217 626.94122,522.69747 629.76922,518.01567 L 634.91102,509.50327 L 637.77072,511.19257 C 640.11452,512.57707 640.90772,512.65177 642.16692,511.60677 C 643.91632,510.15487 649.76172,501.56567 649.76172,500.44707 C 649.76172,499.40997 636.68012,497.31817 632.62272,497.70647 C 629.16382,498.03747 628.48722,499.67997 630.17962,503.63757 C 630.74482,504.95937 629.74112,505.46247 624.56472,506.45217 C 621.09812,507.11507 615.93182,508.37517 613.08422,509.25247 L 607.90672,510.84767 L 610.35262,514.43787 L 612.79852,518.02807 L 605.53012,518.60717 C 601.53252,518.92567 596.49772,519.94717 594.34182,520.87717 L 590.42192,522.56797 L 594.59182,525.63457 C 596.88522,527.32117 598.76172,529.11217 598.76172,529.61467 C 598.76172,531.66997 595.67892,530.27797 591.15022,526.17787 L 586.34522,521.82767 L 592.30342,519.58577 C 595.58052,518.35277 599.83672,517.12197 601.76172,516.85077 C 608.02982,515.96757 608.28842,515.71767 605.74092,513.00597 C 604.46462,511.64747 603.60972,510.37027 603.84112,510.16777 C 604.68192,509.43157 617.39262,505.54647 622.43312,504.48507 L 627.60452,503.39607 L 626.16022,499.93947 C 624.26822,495.41137 625.15692,495.07537 637.10182,495.80307 C 647.09662,496.41197 651.76172,497.70777 651.76172,499.87507 C 651.76172,500.64307 649.50422,504.72957 646.74512,508.95607 L 641.72862,516.64067 L 638.88862,514.61847 L 636.04872,512.59627 L 630.74152,521.56217 C 627.82252,526.49347 625.14402,530.52807 624.78912,530.52807 C 624.43432,530.52807 623.27042,529.86747 622.20282,529.05987 C 619.17102,526.76677 618.01182,527.23437 616.70392,531.27807 C 616.03682,533.34057 614.65402,536.69357 613.63112,538.72907 L 611.77112,542.42998 L 608.29852,540.97907 C 603.56492,539.00127 603.45052,539.05597 604.18122,542.95098 C 604.69762,545.70338 604.47452,546.48448 603.04252,546.93898 C 602.06302,547.24988 596.91822,551.78458 591.60962,557.01618 C 582.33192,566.15918 579.73632,567.97258 579.78372,565.27808 z M 575.18692,422.17276 C 576.37022,405.78257 588.41812,357.32162 596.91112,334.79042 C 607.21982,307.44245 606.93482,308.3651 604.70362,309.5592 C 603.58842,310.15606 599.47472,313.65573 595.56202,317.33626 C 591.64942,321.01679 588.94522,323.08915 589.55272,321.94151 C 590.16012,320.79386 594.70082,316.00682 599.64312,311.30363 C 608.49272,302.88207 608.66902,302.62126 611.26552,294.10866 C 618.08092,271.76439 621.05562,250.28639 620.58602,226.81112 C 620.32332,213.6767 620.50382,210.8367 621.53522,211.87035 C 623.43792,213.77715 624.19842,236.73521 622.86542,252.02813 C 621.47572,267.97238 619.45812,279.89719 616.31292,290.75604 C 614.99662,295.30084 613.99652,299.08245 614.09062,299.15962 C 614.50522,299.49966 635.25672,286.54308 635.50882,285.78679 C 635.66342,285.32289 634.03532,280.01241 631.89072,273.98573 C 626.10712,257.73256 624.44232,249.09055 624.99822,238.20714 C 625.47282,228.91658 627.00932,222.94507 628.66232,223.96672 C 629.17852,224.28576 628.96472,226.52579 628.16422,229.18582 C 625.24962,238.87023 627.56902,254.35161 634.73262,273.02813 C 637.05322,279.07813 639.14782,284.70313 639.38752,285.52813 C 639.68952,286.56825 636.36462,289.08174 628.54242,293.72643 C 613.54982,302.62876 611.57132,304.53417 607.98072,313.52813 C 602.37422,327.57131 590.56972,363.98451 586.74682,379.02811 C 582.80772,394.5287 578.76172,416.32399 578.76172,422.04265 C 578.76172,423.91719 577.88012,426.31147 576.69072,427.66733 L 574.61982,430.02811 L 575.18692,422.17276 z M 509.13732,375.77811 C 493.82492,356.42539 486.00762,347.81143 476.26172,339.5519 C 471.86172,335.82296 466.05112,331.37668 463.34932,329.67128 L 458.43702,326.57053 L 455.14102,330.29933 C 451.51272,334.40397 450.54832,333.04092 453.82492,328.43932 C 454.95972,326.84567 455.64282,325.14482 455.34302,324.65964 C 455.04312,324.17446 451.63972,321.9013 447.77972,319.60816 C 443.91982,317.31502 440.76172,315.00891 440.76172,314.48347 C 440.76172,312.40152 444.74992,313.74703 451.63422,318.15156 C 458.55172,322.57732 458.92292,322.69489 460.31522,320.90156 C 467.36512,311.82101 477.67902,290.55926 486.83412,266.23372 C 494.31332,246.36114 495.78372,244.31055 490.22532,261.50418 C 482.95832,283.98348 472.05602,307.80855 463.95322,318.91726 C 460.41032,323.7746 460.40042,323.81686 462.43102,325.41726 C 463.55522,326.30324 468.11832,329.87794 472.57142,333.36104 C 486.78202,344.47632 503.98092,363.53207 511.75762,376.77811 C 514.77102,381.91073 513.65152,381.48352 509.13732,375.77811 z M 343.76942,375.77811 C 343.77362,375.36561 345.56712,374.00595 347.75482,372.75664 C 352.17982,370.22976 354.19322,367.0273 355.76432,360.01665 C 357.36252,352.88523 355.65462,346.20623 348.17952,330.35375 C 339.13182,311.16641 338.87352,308.21352 345.07612,294.87064 C 353.33732,277.09931 353.79412,268.77846 347.25392,255.20219 C 344.39622,249.27032 343.36562,245.7243 342.99542,240.55069 C 342.22612,229.7989 344.94042,222.57565 356.38502,204.91799 C 369.91122,184.0486 369.79612,184.36374 369.54362,168.8931 C 369.31512,154.88945 370.94492,147.61496 376.23502,139.02812 C 379.35272,133.96748 379.40692,134.80832 376.40432,141.65369 C 372.12102,151.41866 371.38012,156.58926 372.76492,167.05225 C 374.67172,181.45888 374.14232,183.20918 362.57152,200.75223 C 348.86152,221.53854 346.31622,227.07919 346.36632,236.02813 C 346.39922,241.8927 347.11402,244.81237 350.77362,254.02813 C 357.72092,271.52335 357.37812,275.87074 347.27522,298.39586 C 342.39672,309.27273 342.67712,311.16499 351.96022,330.01794 C 358.60512,343.51297 359.26782,345.41927 359.59972,351.99196 C 360.05762,361.05924 357.37382,367.99235 351.43982,373.07161 C 347.75772,376.22337 343.75032,377.63738 343.76942,375.77811 z M 639.90052,370.22158 C 641.74922,368.33158 645.54932,365.63275 648.34522,364.22417 C 665.15562,355.75524 685.10242,338.56886 702.88892,317.22883 C 708.31892,310.71395 712.76172,305.71083 712.76172,306.11078 C 712.76172,306.51073 709.75962,311.38075 706.09042,316.93304 C 701.56492,323.78118 695.53422,330.90058 687.34042,339.06793 C 674.10962,352.25609 662.65342,360.55329 646.44272,368.68818 L 636.53932,373.65793 L 639.90052,370.22158 z M 316.59812,356.63766 C 316.22282,349.99713 315.95112,349.36694 309.10722,339.26309 C 300.49342,326.54619 298.35782,320.76734 298.30272,310.02589 C 298.26802,303.25642 298.66852,301.25374 300.90262,297.02589 C 311.62832,276.72797 311.26182,277.71641 311.26092,269.09607 C 311.26042,264.28205 310.31332,256.79332 308.91272,250.52813 C 305.77542,236.49409 306.25632,226.34217 310.48682,217.30186 C 312.83322,212.28775 315.33482,209.26139 322.68882,202.54012 C 327.77652,197.8901 332.68682,192.72263 333.60052,191.05684 C 334.96492,188.56931 335.26172,184.99051 335.26172,171.02813 C 335.26172,149.4211 335.92122,148.05021 352.22042,135.77831 C 362.69572,127.89135 364.99772,124.16001 367.21142,111.48014 C 369.58842,97.864153 374.51332,91.665553 388.49032,84.697803 C 400.39732,78.762053 405.43752,77.077843 407.94532,78.196863 C 409.79792,79.023483 409.01652,79.529083 402.17492,81.930823 C 387.16562,87.199773 376.91372,94.340553 372.88202,102.33441 C 371.85742,104.36595 370.49222,109.17812 369.84842,113.02812 C 367.82172,125.14648 365.04652,129.42234 353.21142,138.66108 C 338.01922,150.52054 336.24792,154.89554 338.77142,174.32772 C 339.41852,179.31083 339.37012,183.27764 338.61872,186.82772 C 337.60782,191.60428 336.62512,192.90849 326.56102,202.82956 C 311.86532,217.31652 310.23302,220.70727 310.33822,236.52813 C 310.39482,245.05321 310.97692,250.07435 312.58822,255.93809 C 313.78362,260.28857 314.76172,266.67686 314.76172,270.13428 C 314.76172,275.57268 314.20522,277.47301 310.63562,284.22432 C 303.27572,298.14422 302.60822,299.70046 301.55122,305.40381 C 299.76522,315.04058 303.65262,327.28955 311.73602,337.49564 C 316.75962,343.83848 319.87262,351.06391 319.91462,356.47841 C 319.93562,359.19076 319.65822,361.88654 319.29822,362.46904 C 317.79042,364.90875 316.96462,363.12542 316.59812,356.63766 z M 547.47372,345.535 C 546.18162,340.59394 561.23442,318.74285 589.15572,285.02813 C 597.81002,274.57813 606.99922,262.83532 609.57622,258.93299 C 617.53192,246.88579 616.91502,247.56627 616.28962,251.52813 C 615.52652,256.36252 609.70152,264.55942 589.48422,289.24823 C 569.72732,313.37476 560.09772,326.48432 552.97092,338.95665 C 549.01542,345.87897 547.90972,347.20214 547.47372,345.535 z M 655.76172,340.43398 C 656.58672,339.89689 660.80352,337.46117 665.13242,335.02127 C 676.23302,328.76463 682.58672,323.59722 689.86062,314.91001 C 693.33342,310.76248 697.80332,306.07924 699.79372,304.50279 C 703.70002,301.40892 711.14912,298.16999 716.76172,297.125 C 719.46172,296.62228 718.93622,297.03979 714.46262,298.95158 C 706.48102,302.36256 700.50122,306.98918 692.15332,316.21256 C 683.19252,326.11309 676.01432,331.65944 665.02162,337.17641 C 657.24512,341.07929 651.86122,342.97329 655.76172,340.43398 z M 653.55632,335.99833 C 653.16832,335.60546 656.27922,331.53807 660.46942,326.95969 C 670.83352,315.6354 679.18402,303.69603 687.26182,288.65245 C 704.30722,256.90824 706.98302,252.41611 708.15092,253.58406 C 709.07852,254.51164 686.84522,295.62771 679.08392,307.3377 C 671.63082,318.58268 654.90372,337.36274 653.55632,335.99833 z M 639.76172,323.03093 C 639.76172,322.6639 645.61192,316.72748 652.76222,309.83888 C 667.20662,295.92305 672.57002,289.25212 681.81222,273.70657 C 688.34342,262.72093 693.62452,256.63258 700.66232,251.97523 C 705.39372,248.84411 707.82632,249.59824 703.25992,252.78051 C 696.51912,257.47804 688.15412,267.23093 683.76172,275.51397 C 677.45512,287.40657 669.08842,298.1718 658.94592,307.44372 C 649.12952,316.41751 639.76172,324.02889 639.76172,323.03093 z M 586.03712,320.2528 C 586.30632,319.55137 588.99302,315.53966 592.00762,311.33788 C 599.64232,300.69681 607.30352,285.41675 612.97052,269.52813 C 616.26252,260.29833 617.59562,257.45153 617.18512,260.52813 C 615.79732,270.92714 610.71562,284.35209 602.99042,298.02813 C 597.60792,307.55669 587.79182,321.52813 586.47962,321.52813 C 585.96712,321.52813 585.76792,320.95423 586.03712,320.2528 z M 623.76172,315.17992 C 623.76172,314.9497 627.69922,311.90063 632.51172,308.4042 C 650.83122,295.09451 660.51872,283.8013 668.53982,266.40411 C 673.94062,254.6903 679.75492,246.39999 688.59882,237.80269 C 696.67762,229.94918 699.21172,228.54954 701.39632,230.73416 C 702.61172,231.94961 702.59312,232.75457 701.26192,236.52742 C 699.44822,241.66806 691.13782,257.17766 689.73122,258.04696 C 687.63102,259.34496 689.01432,255.71656 694.74092,244.90697 C 698.02942,238.69939 700.32102,233.37379 699.83322,233.07232 C 698.63092,232.32924 690.13982,239.15563 684.99182,245.00399 C 682.68512,247.62455 678.02622,255.22702 674.63852,261.89838 C 666.09702,278.71951 661.14442,286.09087 652.89922,294.25474 C 645.25992,301.81861 623.76172,317.25763 623.76172,315.17992 z M 285.71242,297.87877 C 283.90712,292.40877 285.24972,283.49367 289.36042,273.65358 C 298.09512,252.74523 298.55172,247.77054 293.20352,231.78541 C 287.99052,216.20429 286.51302,209.03964 286.55122,199.52813 C 286.59632,188.3326 288.84052,181.52656 296.97392,167.91904 C 308.32302,148.93162 311.73302,137.57873 311.74982,118.72553 C 311.76382,103.1054 313.44892,94.204553 318.34682,83.881353 C 322.27152,75.609283 326.26772,71.880943 340.76172,62.968893 C 352.67992,55.640703 359.91122,48.873893 364.39772,40.851343 C 368.84882,32.892063 375.74682,25.207233 381.42912,21.877133 C 385.72532,19.359423 386.20882,19.299803 396.77592,19.984683 C 405.63372,20.558783 408.77572,20.372453 413.47422,18.994453 C 421.87862,16.529583 428.50522,16.852073 435.68802,20.075533 C 439.01262,21.567513 442.24432,23.404703 442.86962,24.158173 C 444.62962,26.278843 442.55422,25.844323 436.59392,22.844243 C 429.26492,19.155283 422.97822,18.797323 413.90732,21.552513 C 407.75112,23.422403 405.48432,23.653283 399.91152,22.978003 C 396.25412,22.534823 391.52572,22.245593 389.40382,22.335273 C 382.23192,22.638413 375.16562,28.850843 367.96062,41.187503 C 362.72852,50.146113 356.94742,55.448253 340.87512,66.028853 C 333.66272,70.776853 326.68812,76.094053 325.37592,77.844853 C 318.50202,87.016503 315.87452,97.307963 314.76132,119.41948 C 313.72222,140.06195 312.41092,144.59922 301.28442,166.05161 C 291.61282,184.6991 289.73272,190.27879 289.66082,200.54823 C 289.59722,209.64738 289.84732,210.83826 295.01322,226.02813 C 298.01232,234.84689 299.21192,240.14895 299.53812,246.02813 C 300.02332,254.7717 298.87812,259.02399 291.32352,276.52813 C 287.84162,284.59576 287.68072,285.44778 288.15972,293.27813 C 288.69522,302.03177 287.70032,303.90205 285.71242,297.87877 z M 651.12562,286.43386 C 647.13022,281.49036 635.54972,246.11221 634.26572,234.92736 C 633.89322,231.68278 633.43062,228.00646 633.23762,226.75776 C 633.04462,225.50905 633.24582,224.70927 633.68452,224.98046 C 634.12332,225.25164 634.74912,227.39831 635.07512,229.75083 C 636.03062,236.64572 640.38892,250.85749 646.87612,268.23191 C 652.50052,283.2958 654.08932,290.10086 651.12562,286.43386 z M 467.25252,235.51319 C 466.04362,233.55719 467.55702,233.16318 479.03542,232.4454 C 498.00082,231.25945 507.02962,229.09043 547.51172,215.99525 C 548.19922,215.77286 548.76172,215.78072 548.76172,216.01272 C 548.76172,217.50166 523.85122,226.45663 509.80442,230.01731 C 491.84402,234.57003 468.53052,237.58113 467.25252,235.51319 z M 552.34352,202.31744 C 548.51612,150.21311 538.70722,107.40605 523.39302,75.973903 L 517.08562,63.028123 L 515.03402,67.028123 C 511.24502,74.415293 509.71082,81.595743 509.68372,92.068493 C 509.64112,108.52994 513.91462,124.54131 523.91412,145.38438 C 526.64672,151.08033 528.72042,155.90276 528.52232,156.1009 C 527.81812,156.80501 516.68832,161.52812 515.73322,161.52812 C 513.07432,161.52812 515.36212,159.51671 520.30102,157.51217 C 523.34762,156.27564 525.71012,154.98587 525.55102,154.64603 C 525.39192,154.30618 523.38672,150.16082 521.09502,145.43413 C 512.07232,126.82426 507.63812,110.09078 507.60552,94.528123 C 507.58242,83.540233 508.79002,77.696643 513.03522,68.253243 L 516.08072,61.478353 L 511.27082,54.438733 C 508.62532,50.566943 501.96252,42.193643 496.46462,35.831403 C 490.96672,29.469163 487.09692,24.468923 487.86502,24.719753 C 489.92592,25.392683 504.79692,42.557513 511.57662,52.088753 L 517.46352,60.364773 L 520.75602,57.196453 L 524.04852,54.028123 L 521.27232,57.796543 L 518.49622,61.564953 L 524.52502,73.296543 C 538.29682,100.09551 546.66122,130.71166 552.20232,174.60377 C 555.07482,197.35726 555.77922,210.64026 554.14382,211.21433 C 553.40162,211.47485 552.79652,208.48444 552.34352,202.31744 z M 401.07002,193.52434 C 394.32562,190.15413 385.17842,181.22544 381.91332,174.8253 C 379.12202,169.35392 378.36282,163.66194 380.00622,160.52812 C 381.63812,157.41637 388.29512,154.97696 391.24252,156.41063 C 392.97502,157.25331 392.75642,157.40237 389.70282,157.46044 C 384.27472,157.56367 382.24372,159.56528 382.35902,164.69796 C 382.48852,170.46436 386.73512,178.6038 392.58212,184.29263 C 397.16202,188.74861 405.59122,193.49894 408.95272,193.51836 C 411.26992,193.53175 412.10772,195.18137 410.17422,195.92335 C 407.80822,196.83126 407.55342,196.76414 401.07002,193.52434 z M 622.76172,194.02813 C 622.76172,192.01276 622.26562,191.52813 620.20272,191.52813 C 618.75132,191.52813 617.91122,191.09529 618.26172,190.52813 C 618.60162,189.97813 619.75322,189.52813 620.82072,189.52813 C 622.22442,189.52813 622.76172,188.83613 622.76172,187.02813 C 622.76172,185.65313 623.21172,184.52813 623.76172,184.52813 C 624.31172,184.52813 624.76172,185.35936 624.76172,186.37532 C 624.76172,187.39127 624.63692,189.36072 627.01172,189.30764 C 627.01172,189.30764 629.18962,189.24065 629.26172,189.98657 C 629.36492,191.05329 627.01172,190.94789 627.01172,190.94789 C 624.38102,190.92134 624.76172,191.10374 624.76172,193.52813 C 624.76172,195.17813 624.31172,196.52813 623.76172,196.52813 C 623.21172,196.52813 622.76172,195.40313 622.76172,194.02813 z M 308.10712,189.02493 C 308.95802,182.81707 312.06262,177.14816 318.12212,170.73769 C 318.12212,170.73769 322.12422,167.16651 322.61182,164.97554 C 324.96062,154.42085 321.83522,141.61192 325.04902,130.28367 L 327.02762,123.30924 C 331.56872,114.11545 337.20652,108.70806 349.36852,101.88141 C 360.21892,95.791033 363.70892,91.898393 367.71922,81.413473 C 371.95692,70.334163 374.70092,65.760703 380.09162,60.791643 C 385.35342,55.941493 389.92742,53.470213 399.16812,50.484873 C 403.74182,49.007253 406.26152,48.627913 406.94732,49.313723 C 407.63312,49.999533 406.08382,50.873993 402.16402,52.013513 C 393.61812,54.497873 385.73112,58.794043 380.96332,63.561873 C 376.87122,67.653963 371.75432,77.029293 368.27072,86.817613 C 365.75082,93.897913 362.58522,97.015793 351.13392,103.69579 C 338.37342,111.13954 333.47542,115.8021 329.41642,124.36949 C 326.27412,131.00193 326.26172,131.09302 326.25712,147.52812 C 326.25202,165.97723 325.87132,167.25365 318.20522,174.52813 C 314.03032,178.48975 309.78612,186.66748 309.77152,190.77813 C 309.76612,192.29063 309.25052,193.52813 308.62582,193.52813 C 307.85472,193.52813 307.68812,192.08188 308.10712,189.02493 z M 512.26172,188.12807 L 508.26172,186.88171 L 516.76172,186.391 C 523.35332,186.01046 526.47152,185.29086 530.65012,183.18595 C 537.00952,179.9825 538.60062,180.60052 533.97642,184.47796 C 528.21132,189.31201 520.31912,190.63866 512.26172,188.12807 z M 591.76172,186.38312 C 591.76172,185.58287 592.32422,184.33188 593.01172,183.60313 C 594.01172,182.54313 594.01172,182.18646 593.01172,181.8198 C 592.32422,181.56771 591.76172,180.90082 591.76172,180.33781 C 591.76172,179.7748 592.70122,179.27048 593.38842,179.93839 C 595.66422,182.15023 595.64402,180.04075 596.41262,179.40288 C 598.16292,177.95023 599.54892,179.14093 597.95872,180.73114 C 597.06582,181.62405 596.61592,182.40453 598.36282,183.35994 C 600.60512,184.58623 600.11862,186.51155 597.94002,185.0709 C 595.77562,183.63965 595.91022,183.83634 594.58362,185.03687 C 593.02902,186.44379 591.76172,187.55613 591.76172,186.38312 z M 504.76172,180.02813 C 504.76172,179.20313 505.37622,178.52813 506.12732,178.52813 C 506.87842,178.52813 510.65232,176.94761 514.51362,175.01586 C 518.69822,172.92239 522.21522,171.76494 523.22012,172.15055 C 524.22202,172.53499 526.07772,171.9313 527.79342,170.66282 C 531.00142,168.291 538.21192,167.63591 537.53112,169.77813 C 536.84092,171.94979 523.27362,178.10715 515.33522,179.85148 C 505.97132,181.90904 504.76172,181.92925 504.76172,180.02813 z M 644.06882,176.74125 C 645.30012,175.78833 645.99102,174.30214 644.80672,173.14116 C 643.00712,171.37707 644.56562,170.15182 646.16952,171.46797 C 647.56772,172.61536 647.66392,173.39557 649.84292,171.70949 C 650.82692,170.94808 651.76172,170.93844 651.76172,171.46064 C 651.76172,171.98284 651.08682,173.078 650.51822,173.48441 C 648.86752,174.66426 649.37752,175.408 650.11842,176.54342 C 651.76852,179.07203 649.45602,179.46061 648.26002,177.52543 C 647.84582,176.85515 646.88502,176.64945 645.76672,177.52543 C 642.69052,179.93497 641.95602,178.3763 644.06882,176.74125 z M 615.26172,165.52813 C 614.87872,162.22812 614.35452,159.52812 614.09682,159.52812 C 613.83912,159.52812 612.07102,160.71587 610.16772,162.16757 C 605.24242,165.92434 604.67382,164.22654 609.27822,159.51125 C 613.54562,155.14094 613.36102,154.441 607.44172,152.54826 C 603.86772,151.40548 601.78532,149.17113 603.08392,147.87252 C 603.39712,147.55939 605.78282,148.02879 608.38562,148.91565 C 610.98842,149.80251 613.51012,150.52812 613.98952,150.52812 C 614.46882,150.52812 614.55552,147.82812 614.18222,144.52812 C 613.60662,139.44071 613.74362,138.52812 615.08292,138.52812 C 616.27132,138.52812 616.83042,140.01369 617.34122,144.52782 L 618.01992,150.52752 L 621.89372,147.02782 C 625.43632,143.82731 628.76172,142.47761 628.76172,144.24027 C 628.76172,144.63195 626.88362,146.86609 624.58812,149.20503 C 620.84142,153.02265 620.61122,153.52618 622.33812,154.12767 C 623.39612,154.49619 626.22982,155.63637 628.63542,156.6614 C 632.33732,158.23886 632.81772,158.75571 631.76292,160.02661 C 630.13042,161.99371 628.16322,161.89348 623.07642,159.58402 L 618.89112,157.68385 L 619.47142,164.60598 C 620.01612,171.10329 619.92612,171.52813 618.00492,171.52813 C 616.24722,171.52813 615.85972,170.68043 615.26172,165.52813 z M 696.15172,166.05138 C 697.18212,162.32927 695.79782,162.07004 694.07212,161.47068 C 691.51572,160.58278 692.02702,158.76114 694.94372,159.96197 C 696.92362,160.77715 698.33352,160.01225 698.82972,158.44886 C 699.77202,155.47967 701.95562,155.90729 701.20432,158.90054 C 700.71422,160.8534 700.24712,161.00276 702.90122,161.84862 C 706.46522,162.98445 705.33772,164.40734 701.75892,163.62132 C 699.24112,163.0683 699.28242,163.16146 698.27472,166.46898 C 697.02382,170.57471 695.00952,170.177 696.15172,166.05138 z M 652.76172,152.52812 C 652.76172,150.22519 652.27332,149.85976 650.82072,149.52812 C 649.75322,149.2844 648.60162,149.07812 648.26172,148.52812 C 647.91122,147.96096 648.75132,147.52812 650.20272,147.52812 C 651.61012,147.52812 652.76172,147.07812 652.76172,146.52812 C 652.76172,145.97812 653.43672,144.06581 654.26172,144.06581 C 655.08672,144.06581 655.76172,145.97812 655.76172,146.52812 C 655.76172,147.07812 656.43672,147.52812 657.26172,147.52812 C 658.08672,147.52812 659.08662,148.30308 659.08662,148.85308 C 659.08662,149.40308 657.86172,149.52812 656.76172,149.52812 C 655.20612,149.52812 654.76172,150.19479 654.76172,152.52812 C 654.76172,154.17812 654.31172,155.52812 653.76172,155.52812 C 653.21172,155.52812 652.76172,154.17812 652.76172,152.52812 z M 731.18952,141.68432 C 731.97062,139.07073 730.09152,139.50998 728.36042,138.8542 C 728.36042,138.8542 726.23172,138.66018 726.39902,137.68028 C 726.55982,136.73885 729.09422,137.36048 729.09422,137.36048 C 731.35822,137.30636 732.21632,138.25067 733.07412,135.60936 C 733.99652,132.76905 736.11712,133.86697 734.94532,136.23857 C 734.09742,137.9544 735.56852,138.66291 737.68042,139.31393 C 739.18452,139.77757 739.88282,140.4126 739.83542,140.83551 C 739.78922,141.24791 739.04992,141.46659 736.42082,140.50968 C 734.77082,139.90915 733.84532,139.84077 733.26172,141.52812 C 732.70792,143.12928 730.74112,143.18472 731.18952,141.68432 z M 445.83582,128.65086 C 441.90242,127.55165 442.37682,126.05905 448.01182,121.80454 C 458.00822,114.25721 468.68542,110.37559 473.81482,112.42411 C 476.21762,113.38373 476.20642,113.40249 473.19322,113.46473 C 467.71562,113.57789 460.25892,116.40526 454.43012,120.57916 C 451.22612,122.8735 449.01702,125.13227 449.38892,125.7339 C 450.39412,127.36042 465.27272,125.97175 472.05042,123.61882 C 475.23412,122.51355 479.28412,120.65322 481.05042,119.48477 C 483.47332,117.8819 483.12262,118.43967 479.62212,121.75664 C 473.63482,127.43005 467.18482,129.56062 456.39692,129.42844 C 451.92252,129.37362 447.17012,129.0237 445.83582,128.65086 z M 635.76172,124.72812 C 635.76172,124.28812 636.28012,123.36576 636.96172,122.72812 C 638.22002,121.55107 638.13872,121.01773 637.20542,120.0844 C 635.34702,118.22604 635.88752,116.63929 637.83332,118.05087 C 639.64422,119.3645 640.19542,118.80914 641.83332,116.96327 C 643.35812,115.24489 643.76172,115.40439 643.76172,116.81412 C 643.76172,117.6919 643.59232,118.18874 642.71312,119.05813 C 641.82902,119.93229 642.03512,120.15259 642.83562,121.11715 C 643.77722,122.25179 643.21032,123.78289 641.84412,122.93432 C 640.01302,121.79697 640.25882,121.90329 638.76172,124.02812 C 637.55332,125.74321 635.76172,126.02993 635.76172,124.72812 z M 609.47192,120.52812 C 609.14272,118.45658 609.54312,117.61506 606.84902,118.88187 C 606.84902,118.88187 604.62762,119.74635 604.42422,119.07313 C 604.18622,118.28529 606.51172,116.8537 606.51172,116.8537 C 607.74922,115.99046 608.67102,116.24788 608.11182,114.11235 C 607.42562,111.49174 609.69202,112.03607 609.96172,113.32812 C 610.54052,116.10034 612.06552,114.63296 613.30552,114.25561 C 613.30552,114.25561 615.47112,113.65703 615.69302,114.3893 C 615.93172,115.17693 614.01172,116.20254 614.01172,116.20254 C 611.36802,117.1645 611.43682,117.59711 611.76172,120.15009 C 612.12662,123.01694 610.19642,123.29849 609.47192,120.52812 z M 695.27202,120.85936 C 694.81602,119.47943 694.35032,118.66727 692.39512,119.22747 C 689.78532,119.97523 689.43502,118.56463 692.14862,117.73376 C 694.87542,116.89887 693.74762,115.21029 693.76762,114.02812 C 693.79312,112.51417 694.86992,111.95306 695.46562,114.31091 C 696.12282,116.91231 697.33382,116.61178 698.77062,116.23603 C 699.86462,115.94995 700.98202,116.07563 701.25382,116.51533 C 701.52552,116.95502 700.65722,117.58852 699.32412,117.9231 C 697.87752,118.28618 696.07212,117.7318 697.02662,120.69853 C 697.02662,120.69853 697.08432,122.4815 696.50302,122.62192 C 695.93542,122.75904 695.27202,120.85936 695.27202,120.85936 z M 440.76172,120.75296 C 440.76172,119.45168 444.61872,116.14013 450.26172,112.59634 C 455.93792,109.03171 466.43672,105.50123 471.11702,105.58318 C 473.32742,105.62188 472.12962,106.19711 467.08572,107.51921 C 458.57032,109.75129 455.33162,111.31386 447.01172,117.20424 C 443.57422,119.63795 440.76172,121.23488 440.76172,120.75296 z M 424.08632,110.9316 C 422.20652,106.03286 449.05952,93.644033 467.30532,90.992213 C 474.40772,89.959973 472.40552,91.192463 463.18072,93.531193 C 454.38842,95.760253 438.77132,102.90584 431.79592,107.89123 C 424.97512,112.76612 424.81462,112.82941 424.08632,110.9316 z M 672.88892,97.660793 C 672.00082,96.590733 671.12722,96.762573 670.40412,97.485743 C 669.83082,98.059053 668.69822,98.528123 667.88742,98.528123 C 666.77602,98.528123 666.65102,97.658123 668.52112,96.278123 C 671.53272,94.055723 670.86572,94.150713 669.68302,92.344793 C 669.01382,91.323073 669.09052,90.442923 669.69912,90.066783 C 670.22832,89.739713 671.16532,90.413773 671.78132,91.564683 C 672.65832,93.203383 673.17402,93.374893 674.28342,92.510113 C 676.34342,90.904323 677.38662,90.273623 678.03222,90.800833 C 678.93372,91.536933 678.76522,91.577613 676.66752,93.447813 C 675.01602,94.920093 673.82482,94.788473 674.69642,96.711473 C 675.91712,99.404383 674.28912,99.918633 672.88892,97.660793 z M 721.68042,96.298123 C 720.82412,94.031863 721.24602,94.075953 718.26172,95.094103 C 714.02942,96.538013 713.63982,94.815193 717.65242,93.416363 C 719.82802,92.657963 720.79182,92.188813 719.87332,90.387143 C 718.34752,87.394303 720.77992,86.405483 721.83142,89.946883 C 722.55832,92.395043 724.17432,91.764563 725.61872,91.595803 C 729.21572,91.175523 728.97512,92.809383 725.76792,93.561023 C 724.43032,93.874513 722.82472,93.950113 723.76172,95.621923 C 724.30592,96.593013 723.70912,98.259353 723.08662,98.434323 C 722.45542,98.611763 722.27952,97.883503 721.68042,96.298123 z M 464.26172,13.335253 C 452.14512,5.6899729 438.34322,3.2727029 422.43072,6.0089429 C 412.44592,7.7258929 408.92032,7.5751529 414.94472,5.6888729 C 433.00502,0.034032875 455.07182,2.4532629 468.27212,11.535253 C 476.27082,17.038523 472.68302,18.648873 464.26172,13.335253 z"
     id="path3220"
     sodipodi:nodetypes="cscccsccccsssscccssssssssssscccsssscccssscccsssscccsscccssssssssssccssscccsscccssscccsssssccccccccscccssscccsscccccssscccsssccssssssssssssssssssssssccccscccssssssssssssccssssssssssssssssssccsssssccccssssssssssssssssssssssssssssccsssssccsssssssccssssccssssssccsssssccsssssssssssccsssssssssssssssssssssssssssccsssssccsssscccccsssssssscccsscccccccssccssssssssccsssssscscsscccsscssssssssssssssccccssccsssssssssccssssssccssssssssscssssssssscccssssscccsccsssssssscssssssssssscccscssssssscsssssssssccsssssssssccsscsscscsccssssssscsccssssccsssccssssssssssccssssssssscsssc" />
</svg>
